<?xml version="1.0" encoding="UTF-8" standalone="no"?>
<!DOCTYPE svg PUBLIC "-//W3C//DTD SVG 1.1//EN" "http://www.w3.org/Graphics/SVG/1.1/DTD/svg11.dtd">
<svg xmlns="http://www.w3.org/2000/svg" version="1.1" viewBox="0.00 0.00 1280.00 914.00">
<g stroke-width="2.00" fill="none" stroke-linecap="butt">
<path stroke="#98c1e7" vector-effect="non-scaling-stroke" d="
  M 332.62 735.38
  Q 333.25 734.93 333.78 733.78
  Q 342.51 714.62 349.00 702.52
  Q 357.89 685.94 373.71 665.19
  Q 399.92 630.80 433.80 603.06
  Q 460.59 581.13 489.12 562.62
  Q 528.98 536.77 570.61 515.61
  C 609.70 495.74 633.17 485.34 684.38 461.38
  Q 705.46 451.52 728.97 438.95
  C 765.70 419.32 798.29 395.94 827.69 368.40
  Q 852.81 344.86 875.36 314.89
  Q 900.02 282.11 917.80 247.06
  Q 927.88 227.19 931.99 217.99
  Q 933.65 214.30 937.58 202.80
  C 938.76 199.35 938.57 197.48 936.30 194.70
  C 901.13 151.75 857.27 117.23 806.76 93.78
  Q 756.66 70.53 702.50 61.73
  Q 678.57 57.84 651.84 55.95
  C 633.27 54.64 613.44 55.24 596.47 56.92
  Q 476.10 68.85 381.23 143.48
  C 321.28 190.64 276.39 255.54 250.94 327.16
  Q 238.80 361.33 233.62 396.59
  C 222.14 474.77 231.36 556.36 263.26 628.99
  Q 288.78 687.08 330.12 735.08
  A 1.87 1.87 0.0 0 0 332.62 735.38"
/>
<path stroke="#98c1e7" vector-effect="non-scaling-stroke" d="
  M 768.48 740.04
  Q 767.94 741.22 766.87 742.22
  Q 765.04 743.94 764.91 744.09
  Q 753.04 757.34 749.01 761.48
  Q 722.70 788.42 685.77 797.28
  Q 674.96 799.87 660.01 801.65
  A 1.18 1.18 0.0 0 1 658.69 800.48
  L 658.69 655.77
  A 1.15 1.15 0.0 0 0 657.60 654.62
  Q 656.09 654.52 653.63 655.37
  Q 649.52 656.77 609.30 670.06
  A 1.63 1.63 0.0 0 0 608.18 671.61
  L 608.18 801.46
  A 0.69 0.69 0.0 0 1 607.38 802.14
  C 594.54 800.02 584.76 798.91 573.29 795.12
  Q 560.20 790.80 550.44 785.56
  C 529.48 774.30 512.22 758.39 496.83 739.22
  Q 495.25 737.25 493.72 738.48
  Q 457.07 767.91 424.85 807.24
  C 422.93 809.59 422.33 811.08 425.21 812.86
  Q 436.53 819.90 445.00 824.02
  Q 472.26 837.30 497.95 846.04
  C 533.62 858.18 570.76 864.69 608.64 867.12
  C 652.92 869.95 697.24 864.89 739.88 854.05
  Q 744.45 852.88 747.98 851.69
  C 754.66 849.42 762.22 847.42 768.07 845.35
  C 807.77 831.28 846.00 811.77 879.08 785.32
  Q 880.00 784.59 883.03 781.65"
/>
<path stroke="#f6a898" vector-effect="non-scaling-stroke" d="
  M 883.03 781.65
  Q 892.02 774.86 901.04 767.04
  C 939.90 733.36 972.05 694.23 995.46 649.03
  Q 1005.35 629.93 1011.24 614.32
  C 1037.65 544.26 1044.21 468.18 1032.80 393.85
  Q 1020.67 314.81 977.76 245.54
  Q 975.69 242.20 973.58 240.09
  A 1.52 1.52 0.0 0 0 971.03 240.78
  Q 964.65 264.94 953.47 286.20
  Q 924.86 340.60 884.95 383.71
  Q 851.56 419.78 812.07 448.60
  C 778.53 473.07 740.67 493.50 702.26 511.23
  Q 700.03 512.26 625.36 546.84
  Q 576.52 569.47 529.47 597.22
  Q 501.32 613.83 480.89 629.39
  Q 454.45 649.54 429.53 675.53
  C 403.32 702.86 383.08 733.04 370.30 767.96
  C 369.17 771.03 369.11 772.59 371.55 774.71
  Q 375.24 777.90 382.56 783.20
  Q 385.21 785.12 386.71 782.71
  Q 401.11 759.75 421.14 740.88
  Q 443.64 719.69 467.38 701.12
  C 522.51 657.98 587.19 626.99 653.52 605.78
  Q 662.41 602.94 704.26 590.72
  C 746.57 578.36 786.69 565.62 825.15 546.88
  Q 879.09 520.60 923.80 479.52
  Q 942.85 462.02 959.05 441.69
  A 0.61 0.61 0.0 0 1 960.13 442.03
  C 964.78 529.96 924.58 616.94 852.61 667.63
  C 816.16 693.31 770.33 709.29 725.77 716.82
  Q 723.68 717.18 720.87 717.35
  A 0.75 0.75 0.0 0 0 720.35 718.59
  Q 721.69 720.12 723.39 720.95
  Q 745.25 731.71 768.48 740.04"
/>
<path stroke="#8f6a80" vector-effect="non-scaling-stroke" d="
  M 883.03 781.65
  C 874.53 780.35 866.81 776.76 859.46 773.78
  C 849.42 769.71 838.44 766.64 830.13 763.36
  Q 817.44 758.36 791.84 748.73
  Q 780.09 744.31 768.48 740.04"
/>
<path stroke="#98c1e7" vector-effect="non-scaling-stroke" d="
  M 608.12 269.16
  Q 608.50 267.56 608.50 265.00
  Q 608.57 184.60 608.47 117.60
  A 0.95 0.94 -4.9 0 0 607.36 116.67
  Q 559.43 124.50 524.92 159.50
  C 499.54 185.23 482.20 214.89 468.25 249.28
  Q 467.65 250.75 467.52 251.71
  A 1.26 1.26 0.0 0 0 468.46 253.11
  C 480.10 256.08 490.72 257.63 506.31 260.20
  Q 556.63 268.49 607.48 269.65
  A 0.65 0.64 7.2 0 0 608.12 269.16"
/>
<path stroke="#98c1e7" vector-effect="non-scaling-stroke" d="
  M 659.48 269.79
  Q 659.99 269.89 660.52 269.88
  Q 696.36 269.47 735.75 264.71
  Q 767.41 260.88 797.86 253.29
  A 0.88 0.87 -16.3 0 0 798.48 252.17
  Q 788.10 221.06 771.90 193.62
  C 758.07 170.20 739.13 148.71 716.54 134.70
  Q 690.47 118.55 659.46 116.52
  A 0.93 0.93 0.0 0 0 658.47 117.45
  L 658.47 268.56
  A 1.25 1.25 0.0 0 0 659.48 269.79"
/>
<path stroke="#98c1e7" vector-effect="non-scaling-stroke" d="
  M 797.75 148.69
  Q 807.30 158.07 815.81 171.17
  Q 836.00 202.25 847.75 234.93
  Q 848.56 237.19 850.57 236.31
  Q 864.97 230.06 879.22 222.73
  Q 884.44 220.04 888.72 217.32
  A 0.93 0.93 0.0 0 0 888.90 215.90
  Q 867.65 192.90 842.82 174.76
  C 829.09 164.72 813.58 155.82 799.04 148.20
  Q 798.47 147.90 797.93 148.04
  A 0.39 0.39 0.0 0 0 797.75 148.69"
/>
<path stroke="#98c1e7" vector-effect="non-scaling-stroke" d="
  M 466.55 150.41
  A 0.54 0.54 0.0 0 0 465.80 149.74
  Q 430.35 167.92 401.28 193.13
  C 391.71 201.43 381.06 212.32 371.72 222.17
  A 0.83 0.83 0.0 0 0 371.93 223.47
  Q 373.89 224.51 377.05 225.57
  Q 390.11 229.92 411.04 236.22
  Q 413.14 236.85 417.37 237.78
  A 1.28 1.27 16.5 0 0 418.83 236.99
  Q 436.18 191.50 465.62 152.11
  Q 466.21 151.32 466.55 150.41"
/>
<path stroke="#98c1e7" vector-effect="non-scaling-stroke" d="
  M 382.79 439.38
  C 383.28 388.93 389.57 338.18 402.74 289.38
  A 1.54 1.53 14.8 0 0 401.64 287.50
  Q 370.05 279.38 339.05 267.71
  A 1.84 1.84 0.0 0 0 337.10 268.13
  Q 336.08 269.16 335.35 270.36
  C 330.08 279.04 324.55 287.67 320.04 296.25
  C 296.82 340.45 282.87 389.39 280.31 439.39
  A 1.05 1.04 -88.7 0 0 281.35 440.49
  L 381.67 440.49
  A 1.12 1.12 0.0 0 0 382.79 439.38"
/>
<path stroke="#98c1e7" vector-effect="non-scaling-stroke" d="
  M 660.45 427.78
  C 694.60 413.88 726.24 395.68 754.58 374.60
  Q 788.96 349.04 815.24 315.26
  A 3.09 3.09 0.0 0 0 815.79 312.61
  L 812.17 298.50
  A 0.57 0.56 -15.9 0 0 811.46 298.11
  Q 779.41 307.98 747.73 313.23
  Q 704.68 320.37 661.10 321.37
  A 1.49 1.49 0.0 0 0 659.65 322.86
  L 659.65 427.24
  A 0.58 0.58 0.0 0 0 660.45 427.78"
/>
<path stroke="#98c1e7" vector-effect="non-scaling-stroke" d="
  M 608.65 439.74
  L 608.65 322.63
  A 1.28 1.27 1.2 0 0 607.42 321.36
  Q 541.85 319.10 478.78 307.16
  Q 465.81 304.70 454.10 301.83
  Q 451.82 301.28 451.29 303.26
  Q 434.18 366.47 432.61 432.74
  Q 432.54 435.79 432.73 438.94
  A 1.73 1.73 0.0 0 0 434.46 440.56
  L 607.83 440.56
  A 0.82 0.82 0.0 0 0 608.65 439.74"
/>
<path stroke="#98c1e7" vector-effect="non-scaling-stroke" d="
  M 280.62 491.82
  C 284.58 548.31 301.79 602.66 330.36 651.62
  A 1.13 1.13 0.0 0 0 332.21 651.76
  Q 335.05 648.27 343.92 637.41
  Q 367.31 608.78 393.62 584.87
  A 2.50 2.50 0.0 0 0 394.38 582.47
  Q 384.70 538.95 383.10 492.67
  A 1.65 1.64 88.9 0 0 381.46 491.08
  L 281.31 491.08
  A 0.69 0.69 0.0 0 0 280.62 491.82"
/>
<path stroke="#98c1e7" vector-effect="non-scaling-stroke" d="
  M 438.64 546.26
  Q 439.58 545.99 440.11 545.60
  Q 480.61 516.02 526.17 492.67
  Q 526.94 492.27 527.15 491.69
  A 0.43 0.43 0.0 0 0 526.75 491.12
  L 434.34 491.12
  A 1.01 1.01 0.0 0 0 433.33 492.17
  Q 434.32 519.14 437.90 545.79
  A 0.58 0.57 -12.1 0 0 438.64 546.26"
/>
</g>
<path fill="#ffffff" d="
  M 1280.00 0.00
  L 1280.00 914.00
  L 0.00 914.00
  L 0.00 0.00
  L 1280.00 0.00
  Z
  M 332.62 735.38
  Q 333.25 734.93 333.78 733.78
  Q 342.51 714.62 349.00 702.52
  Q 357.89 685.94 373.71 665.19
  Q 399.92 630.80 433.80 603.06
  Q 460.59 581.13 489.12 562.62
  Q 528.98 536.77 570.61 515.61
  C 609.70 495.74 633.17 485.34 684.38 461.38
  Q 705.46 451.52 728.97 438.95
  C 765.70 419.32 798.29 395.94 827.69 368.40
  Q 852.81 344.86 875.36 314.89
  Q 900.02 282.11 917.80 247.06
  Q 927.88 227.19 931.99 217.99
  Q 933.65 214.30 937.58 202.80
  C 938.76 199.35 938.57 197.48 936.30 194.70
  C 901.13 151.75 857.27 117.23 806.76 93.78
  Q 756.66 70.53 702.50 61.73
  Q 678.57 57.84 651.84 55.95
  C 633.27 54.64 613.44 55.24 596.47 56.92
  Q 476.10 68.85 381.23 143.48
  C 321.28 190.64 276.39 255.54 250.94 327.16
  Q 238.80 361.33 233.62 396.59
  C 222.14 474.77 231.36 556.36 263.26 628.99
  Q 288.78 687.08 330.12 735.08
  A 1.87 1.87 0.0 0 0 332.62 735.38
  Z
  M 768.48 740.04
  Q 767.94 741.22 766.87 742.22
  Q 765.04 743.94 764.91 744.09
  Q 753.04 757.34 749.01 761.48
  Q 722.70 788.42 685.77 797.28
  Q 674.96 799.87 660.01 801.65
  A 1.18 1.18 0.0 0 1 658.69 800.48
  L 658.69 655.77
  A 1.15 1.15 0.0 0 0 657.60 654.62
  Q 656.09 654.52 653.63 655.37
  Q 649.52 656.77 609.30 670.06
  A 1.63 1.63 0.0 0 0 608.18 671.61
  L 608.18 801.46
  A 0.69 0.69 0.0 0 1 607.38 802.14
  C 594.54 800.02 584.76 798.91 573.29 795.12
  Q 560.20 790.80 550.44 785.56
  C 529.48 774.30 512.22 758.39 496.83 739.22
  Q 495.25 737.25 493.72 738.48
  Q 457.07 767.91 424.85 807.24
  C 422.93 809.59 422.33 811.08 425.21 812.86
  Q 436.53 819.90 445.00 824.02
  Q 472.26 837.30 497.95 846.04
  C 533.62 858.18 570.76 864.69 608.64 867.12
  C 652.92 869.95 697.24 864.89 739.88 854.05
  Q 744.45 852.88 747.98 851.69
  C 754.66 849.42 762.22 847.42 768.07 845.35
  C 807.77 831.28 846.00 811.77 879.08 785.32
  Q 880.00 784.59 883.03 781.65
  Q 892.02 774.86 901.04 767.04
  C 939.90 733.36 972.05 694.23 995.46 649.03
  Q 1005.35 629.93 1011.24 614.32
  C 1037.65 544.26 1044.21 468.18 1032.80 393.85
  Q 1020.67 314.81 977.76 245.54
  Q 975.69 242.20 973.58 240.09
  A 1.52 1.52 0.0 0 0 971.03 240.78
  Q 964.65 264.94 953.47 286.20
  Q 924.86 340.60 884.95 383.71
  Q 851.56 419.78 812.07 448.60
  C 778.53 473.07 740.67 493.50 702.26 511.23
  Q 700.03 512.26 625.36 546.84
  Q 576.52 569.47 529.47 597.22
  Q 501.32 613.83 480.89 629.39
  Q 454.45 649.54 429.53 675.53
  C 403.32 702.86 383.08 733.04 370.30 767.96
  C 369.17 771.03 369.11 772.59 371.55 774.71
  Q 375.24 777.90 382.56 783.20
  Q 385.21 785.12 386.71 782.71
  Q 401.11 759.75 421.14 740.88
  Q 443.64 719.69 467.38 701.12
  C 522.51 657.98 587.19 626.99 653.52 605.78
  Q 662.41 602.94 704.26 590.72
  C 746.57 578.36 786.69 565.62 825.15 546.88
  Q 879.09 520.60 923.80 479.52
  Q 942.85 462.02 959.05 441.69
  A 0.61 0.61 0.0 0 1 960.13 442.03
  C 964.78 529.96 924.58 616.94 852.61 667.63
  C 816.16 693.31 770.33 709.29 725.77 716.82
  Q 723.68 717.18 720.87 717.35
  A 0.75 0.75 0.0 0 0 720.35 718.59
  Q 721.69 720.12 723.39 720.95
  Q 745.25 731.71 768.48 740.04
  Z"
/>
<path fill="#3183cf" d="
  M 332.62 735.38
  A 1.87 1.87 0.0 0 1 330.12 735.08
  Q 288.78 687.08 263.26 628.99
  C 231.36 556.36 222.14 474.77 233.62 396.59
  Q 238.80 361.33 250.94 327.16
  C 276.39 255.54 321.28 190.64 381.23 143.48
  Q 476.10 68.85 596.47 56.92
  C 613.44 55.24 633.27 54.64 651.84 55.95
  Q 678.57 57.84 702.50 61.73
  Q 756.66 70.53 806.76 93.78
  C 857.27 117.23 901.13 151.75 936.30 194.70
  C 938.57 197.48 938.76 199.35 937.58 202.80
  Q 933.65 214.30 931.99 217.99
  Q 927.88 227.19 917.80 247.06
  Q 900.02 282.11 875.36 314.89
  Q 852.81 344.86 827.69 368.40
  C 798.29 395.94 765.70 419.32 728.97 438.95
  Q 705.46 451.52 684.38 461.38
  C 633.17 485.34 609.70 495.74 570.61 515.61
  Q 528.98 536.77 489.12 562.62
  Q 460.59 581.13 433.80 603.06
  Q 399.92 630.80 373.71 665.19
  Q 357.89 685.94 349.00 702.52
  Q 342.51 714.62 333.78 733.78
  Q 333.25 734.93 332.62 735.38
  Z
  M 608.12 269.16
  Q 608.50 267.56 608.50 265.00
  Q 608.57 184.60 608.47 117.60
  A 0.95 0.94 -4.9 0 0 607.36 116.67
  Q 559.43 124.50 524.92 159.50
  C 499.54 185.23 482.20 214.89 468.25 249.28
  Q 467.65 250.75 467.52 251.71
  A 1.26 1.26 0.0 0 0 468.46 253.11
  C 480.10 256.08 490.72 257.63 506.31 260.20
  Q 556.63 268.49 607.48 269.65
  A 0.65 0.64 7.2 0 0 608.12 269.16
  Z
  M 659.48 269.79
  Q 659.99 269.89 660.52 269.88
  Q 696.36 269.47 735.75 264.71
  Q 767.41 260.88 797.86 253.29
  A 0.88 0.87 -16.3 0 0 798.48 252.17
  Q 788.10 221.06 771.90 193.62
  C 758.07 170.20 739.13 148.71 716.54 134.70
  Q 690.47 118.55 659.46 116.52
  A 0.93 0.93 0.0 0 0 658.47 117.45
  L 658.47 268.56
  A 1.25 1.25 0.0 0 0 659.48 269.79
  Z
  M 797.75 148.69
  Q 807.30 158.07 815.81 171.17
  Q 836.00 202.25 847.75 234.93
  Q 848.56 237.19 850.57 236.31
  Q 864.97 230.06 879.22 222.73
  Q 884.44 220.04 888.72 217.32
  A 0.93 0.93 0.0 0 0 888.90 215.90
  Q 867.65 192.90 842.82 174.76
  C 829.09 164.72 813.58 155.82 799.04 148.20
  Q 798.47 147.90 797.93 148.04
  A 0.39 0.39 0.0 0 0 797.75 148.69
  Z
  M 466.55 150.41
  A 0.54 0.54 0.0 0 0 465.80 149.74
  Q 430.35 167.92 401.28 193.13
  C 391.71 201.43 381.06 212.32 371.72 222.17
  A 0.83 0.83 0.0 0 0 371.93 223.47
  Q 373.89 224.51 377.05 225.57
  Q 390.11 229.92 411.04 236.22
  Q 413.14 236.85 417.37 237.78
  A 1.28 1.27 16.5 0 0 418.83 236.99
  Q 436.18 191.50 465.62 152.11
  Q 466.21 151.32 466.55 150.41
  Z
  M 382.79 439.38
  C 383.28 388.93 389.57 338.18 402.74 289.38
  A 1.54 1.53 14.8 0 0 401.64 287.50
  Q 370.05 279.38 339.05 267.71
  A 1.84 1.84 0.0 0 0 337.10 268.13
  Q 336.08 269.16 335.35 270.36
  C 330.08 279.04 324.55 287.67 320.04 296.25
  C 296.82 340.45 282.87 389.39 280.31 439.39
  A 1.05 1.04 -88.7 0 0 281.35 440.49
  L 381.67 440.49
  A 1.12 1.12 0.0 0 0 382.79 439.38
  Z
  M 660.45 427.78
  C 694.60 413.88 726.24 395.68 754.58 374.60
  Q 788.96 349.04 815.24 315.26
  A 3.09 3.09 0.0 0 0 815.79 312.61
  L 812.17 298.50
  A 0.57 0.56 -15.9 0 0 811.46 298.11
  Q 779.41 307.98 747.73 313.23
  Q 704.68 320.37 661.10 321.37
  A 1.49 1.49 0.0 0 0 659.65 322.86
  L 659.65 427.24
  A 0.58 0.58 0.0 0 0 660.45 427.78
  Z
  M 608.65 439.74
  L 608.65 322.63
  A 1.28 1.27 1.2 0 0 607.42 321.36
  Q 541.85 319.10 478.78 307.16
  Q 465.81 304.70 454.10 301.83
  Q 451.82 301.28 451.29 303.26
  Q 434.18 366.47 432.61 432.74
  Q 432.54 435.79 432.73 438.94
  A 1.73 1.73 0.0 0 0 434.46 440.56
  L 607.83 440.56
  A 0.82 0.82 0.0 0 0 608.65 439.74
  Z
  M 280.62 491.82
  C 284.58 548.31 301.79 602.66 330.36 651.62
  A 1.13 1.13 0.0 0 0 332.21 651.76
  Q 335.05 648.27 343.92 637.41
  Q 367.31 608.78 393.62 584.87
  A 2.50 2.50 0.0 0 0 394.38 582.47
  Q 384.70 538.95 383.10 492.67
  A 1.65 1.64 88.9 0 0 381.46 491.08
  L 281.31 491.08
  A 0.69 0.69 0.0 0 0 280.62 491.82
  Z
  M 438.64 546.26
  Q 439.58 545.99 440.11 545.60
  Q 480.61 516.02 526.17 492.67
  Q 526.94 492.27 527.15 491.69
  A 0.43 0.43 0.0 0 0 526.75 491.12
  L 434.34 491.12
  A 1.01 1.01 0.0 0 0 433.33 492.17
  Q 434.32 519.14 437.90 545.79
  A 0.58 0.57 -12.1 0 0 438.64 546.26
  Z"
/>
<path fill="#ffffff" d="
  M 607.48 269.65
  Q 556.63 268.49 506.31 260.20
  C 490.72 257.63 480.10 256.08 468.46 253.11
  A 1.26 1.26 0.0 0 1 467.52 251.71
  Q 467.65 250.75 468.25 249.28
  C 482.20 214.89 499.54 185.23 524.92 159.50
  Q 559.43 124.50 607.36 116.67
  A 0.95 0.94 -4.9 0 1 608.47 117.60
  Q 608.57 184.60 608.50 265.00
  Q 608.50 267.56 608.12 269.16
  A 0.65 0.64 7.2 0 1 607.48 269.65
  Z"
/>
<path fill="#ffffff" d="
  M 659.48 269.79
  A 1.25 1.25 0.0 0 1 658.47 268.56
  L 658.47 117.45
  A 0.93 0.93 0.0 0 1 659.46 116.52
  Q 690.47 118.55 716.54 134.70
  C 739.13 148.71 758.07 170.20 771.90 193.62
  Q 788.10 221.06 798.48 252.17
  A 0.88 0.87 -16.3 0 1 797.86 253.29
  Q 767.41 260.88 735.75 264.71
  Q 696.36 269.47 660.52 269.88
  Q 659.99 269.89 659.48 269.79
  Z"
/>
<path fill="#ffffff" d="
  M 797.75 148.69
  A 0.39 0.39 0.0 0 1 797.93 148.04
  Q 798.47 147.90 799.04 148.20
  C 813.58 155.82 829.09 164.72 842.82 174.76
  Q 867.65 192.90 888.90 215.90
  A 0.93 0.93 0.0 0 1 888.72 217.32
  Q 884.44 220.04 879.22 222.73
  Q 864.97 230.06 850.57 236.31
  Q 848.56 237.19 847.75 234.93
  Q 836.00 202.25 815.81 171.17
  Q 807.30 158.07 797.75 148.69
  Z"
/>
<path fill="#ffffff" d="
  M 466.55 150.41
  Q 466.21 151.32 465.62 152.11
  Q 436.18 191.50 418.83 236.99
  A 1.28 1.27 16.5 0 1 417.37 237.78
  Q 413.14 236.85 411.04 236.22
  Q 390.11 229.92 377.05 225.57
  Q 373.89 224.51 371.93 223.47
  A 0.83 0.83 0.0 0 1 371.72 222.17
  C 381.06 212.32 391.71 201.43 401.28 193.13
  Q 430.35 167.92 465.80 149.74
  A 0.54 0.54 0.0 0 1 466.55 150.41
  Z"
/>
<path fill="#ed5131" d="
  M 883.03 781.65
  C 874.53 780.35 866.81 776.76 859.46 773.78
  C 849.42 769.71 838.44 766.64 830.13 763.36
  Q 817.44 758.36 791.84 748.73
  Q 780.09 744.31 768.48 740.04
  Q 745.25 731.71 723.39 720.95
  Q 721.69 720.12 720.35 718.59
  A 0.75 0.75 0.0 0 1 720.87 717.35
  Q 723.68 717.18 725.77 716.82
  C 770.33 709.29 816.16 693.31 852.61 667.63
  C 924.58 616.94 964.78 529.96 960.13 442.03
  A 0.61 0.61 0.0 0 0 959.05 441.69
  Q 942.85 462.02 923.80 479.52
  Q 879.09 520.60 825.15 546.88
  C 786.69 565.62 746.57 578.36 704.26 590.72
  Q 662.41 602.94 653.52 605.78
  C 587.19 626.99 522.51 657.98 467.38 701.12
  Q 443.64 719.69 421.14 740.88
  Q 401.11 759.75 386.71 782.71
  Q 385.21 785.12 382.56 783.20
  Q 375.24 777.90 371.55 774.71
  C 369.11 772.59 369.17 771.03 370.30 767.96
  C 383.08 733.04 403.32 702.86 429.53 675.53
  Q 454.45 649.54 480.89 629.39
  Q 501.32 613.83 529.47 597.22
  Q 576.52 569.47 625.36 546.84
  Q 700.03 512.26 702.26 511.23
  C 740.67 493.50 778.53 473.07 812.07 448.60
  Q 851.56 419.78 884.95 383.71
  Q 924.86 340.60 953.47 286.20
  Q 964.65 264.94 971.03 240.78
  A 1.52 1.52 0.0 0 1 973.58 240.09
  Q 975.69 242.20 977.76 245.54
  Q 1020.67 314.81 1032.80 393.85
  C 1044.21 468.18 1037.65 544.26 1011.24 614.32
  Q 1005.35 629.93 995.46 649.03
  C 972.05 694.23 939.90 733.36 901.04 767.04
  Q 892.02 774.86 883.03 781.65
  Z"
/>
<path fill="#ffffff" d="
  M 382.79 439.38
  A 1.12 1.12 0.0 0 1 381.67 440.49
  L 281.35 440.49
  A 1.05 1.04 -88.7 0 1 280.31 439.39
  C 282.87 389.39 296.82 340.45 320.04 296.25
  C 324.55 287.67 330.08 279.04 335.35 270.36
  Q 336.08 269.16 337.10 268.13
  A 1.84 1.84 0.0 0 1 339.05 267.71
  Q 370.05 279.38 401.64 287.50
  A 1.54 1.53 14.8 0 1 402.74 289.38
  C 389.57 338.18 383.28 388.93 382.79 439.38
  Z"
/>
<path fill="#ffffff" d="
  M 660.45 427.78
  A 0.58 0.58 0.0 0 1 659.65 427.24
  L 659.65 322.86
  A 1.49 1.49 0.0 0 1 661.10 321.37
  Q 704.68 320.37 747.73 313.23
  Q 779.41 307.98 811.46 298.11
  A 0.57 0.56 -15.9 0 1 812.17 298.50
  L 815.79 312.61
  A 3.09 3.09 0.0 0 1 815.24 315.26
  Q 788.96 349.04 754.58 374.60
  C 726.24 395.68 694.60 413.88 660.45 427.78
  Z"
/>
<path fill="#ffffff" d="
  M 608.65 439.74
  A 0.82 0.82 0.0 0 1 607.83 440.56
  L 434.46 440.56
  A 1.73 1.73 0.0 0 1 432.73 438.94
  Q 432.54 435.79 432.61 432.74
  Q 434.18 366.47 451.29 303.26
  Q 451.82 301.28 454.10 301.83
  Q 465.81 304.70 478.78 307.16
  Q 541.85 319.10 607.42 321.36
  A 1.28 1.27 1.2 0 1 608.65 322.63
  L 608.65 439.74
  Z"
/>
<path fill="#ffffff" d="
  M 280.62 491.82
  A 0.69 0.69 0.0 0 1 281.31 491.08
  L 381.46 491.08
  A 1.65 1.64 88.9 0 1 383.10 492.67
  Q 384.70 538.95 394.38 582.47
  A 2.50 2.50 0.0 0 1 393.62 584.87
  Q 367.31 608.78 343.92 637.41
  Q 335.05 648.27 332.21 651.76
  A 1.13 1.13 0.0 0 1 330.36 651.62
  C 301.79 602.66 284.58 548.31 280.62 491.82
  Z"
/>
<path fill="#ffffff" d="
  M 438.64 546.26
  A 0.58 0.57 -12.1 0 1 437.90 545.79
  Q 434.32 519.14 433.33 492.17
  A 1.01 1.01 0.0 0 1 434.34 491.12
  L 526.75 491.12
  A 0.43 0.43 0.0 0 1 527.15 491.69
  Q 526.94 492.27 526.17 492.67
  Q 480.61 516.02 440.11 545.60
  Q 439.58 545.99 438.64 546.26
  Z"
/>
<path fill="#3183cf" d="
  M 768.48 740.04
  Q 780.09 744.31 791.84 748.73
  Q 817.44 758.36 830.13 763.36
  C 838.44 766.64 849.42 769.71 859.46 773.78
  C 866.81 776.76 874.53 780.35 883.03 781.65
  Q 880.00 784.59 879.08 785.32
  C 846.00 811.77 807.77 831.28 768.07 845.35
  C 762.22 847.42 754.66 849.42 747.98 851.69
  Q 744.45 852.88 739.88 854.05
  C 697.24 864.89 652.92 869.95 608.64 867.12
  C 570.76 864.69 533.62 858.18 497.95 846.04
  Q 472.26 837.30 445.00 824.02
  Q 436.53 819.90 425.21 812.86
  C 422.33 811.08 422.93 809.59 424.85 807.24
  Q 457.07 767.91 493.72 738.48
  Q 495.25 737.25 496.83 739.22
  C 512.22 758.39 529.48 774.30 550.44 785.56
  Q 560.20 790.80 573.29 795.12
  C 584.76 798.91 594.54 800.02 607.38 802.14
  A 0.69 0.69 0.0 0 0 608.18 801.46
  L 608.18 671.61
  A 1.63 1.63 0.0 0 1 609.30 670.06
  Q 649.52 656.77 653.63 655.37
  Q 656.09 654.52 657.60 654.62
  A 1.15 1.15 0.0 0 1 658.69 655.77
  L 658.69 800.48
  A 1.18 1.18 0.0 0 0 660.01 801.65
  Q 674.96 799.87 685.77 797.28
  Q 722.70 788.42 749.01 761.48
  Q 753.04 757.34 764.91 744.09
  Q 765.04 743.94 766.87 742.22
  Q 767.94 741.22 768.48 740.04
  Z"
/>
</svg>
